<svg id="Layer_1" data-name="Layer 1" xmlns="http://www.w3.org/2000/svg" viewBox="0 0 307.67 395.1"><defs><style>.cls-1{fill:#fff;}.cls-2{fill:#991f33;}.cls-3{fill:#91172c;}.cls-4{fill:#027c4e;}.cls-5{fill:#066752;}.cls-6{fill:#fabe2c;}.cls-7{fill:#b5782f;}</style></defs><path class="cls-1" d="M338.19,580.67c1.2-.93,2.46-1.91,3.76-3,.66-.52,1.33-1.05,2-1.61l4.27-3.48,3.73-3.15q4.92-4.2,10.41-9.17,1.78-1.62,3.68-3.38l3.86-3.63,2.65-2.55c.9-.87,1.82-1.76,2.74-2.67,4.88-4.81,10.08-10.12,15.5-16,2.77-3,5.6-6.08,8.47-9.32l.12-.14v-.13l-5.86,6.59V402.51L351.1,367l-20.35-17-63,52.69V529.49c1,1.09,2,2.19,3,3.24,25.64,27.41,47.74,45,59.74,53.72q2.68-2,6-4.48Z" transform="translate(-174.8 -197.96)"/><polygon class="cls-1" points="112.78 218.46 112.78 218.72 112.85 218.51 112.78 218.46"/><polygon class="cls-1" points="154.53 284.48 150.58 295.25 158.58 295.25 154.59 284.48 154.53 284.48"/><path class="cls-1" d="M297.16,368.88h81.76V243l-.34-.14q-.93-.37-1.86-.78l-.67-.28q-2.73-1.17-5.47-2.43-3.12-1.42-6.29-3c-1.31-.64-2.61-1.29-3.93-2q-3.06-1.56-6.15-3.22l-1.87-1-4-2.25-2-1.17-2-1.19c-1.28-.76-2.57-1.53-3.86-2.33q-6.07-3.72-12.21-7.91a282.46,282.46,0,0,1-48,26.51l-2.4,1v126Z" transform="translate(-174.8 -197.96)"/><polygon class="cls-1" points="145.77 69.31 145.77 49.94 167.73 49.94 167.73 49.94 167.73 53.3 167.73 56.66 153.41 56.66 153.41 66.3 166.34 66.3 166.34 69.56 166.34 69.69 166.34 69.72 166.34 73.07 166.34 73.07 153.41 73.07 153.41 85.34 145.77 85.34 145.77 69.31"/><path class="cls-2" d="M277.77,453.49V242.88c-1,.56-1.95,1.12-2.92,1.65-1.89,1.05-3.77,2.05-5.63,3l-1.6.8h0l-1.3.62-1.19.57L264,250l-.07,0q-2.49,1.14-4.93,2.14l-.05,0-1.26.51-1.73.69c-1.15.44-2.29.87-3.43,1.27l-1.69.6-1.33.45-.14,0-.41.14-1.45.46-.08,0c-.54.18-1.07.34-1.61.5-2.75.83-5.45,1.55-8.08,2.17l-.79.18-.79.17-1.83.4-1.81.36-2,.37-1.54.25-1.2.2h-.1l-1.73.25-1.82.23c-.48.07-1,.12-1.43.17l-1.22.14-.34,0-1.14.1-.35,0-.14,0c-.34,0-.67.06-1,.07l-1.58.11-1.57.09c-.41,0-.83.05-1.24.06-.87,0-1.73.06-2.58.08H209a109.67,109.67,0,0,1-19.76-1.72c-4,50.35-.47,97.72,10.51,141a335,335,0,0,0,45.37,103.54c1,1.51,2,3,3,4.45s2,2.91,3,4.32l1.38,1.91,1.65,2.26,1,1.39.89,1.19c.53.69,1.05,1.38,1.58,2.06s1,1.26,1.46,1.88c1.11,1.42,2.23,2.82,3.34,4.19.33.42.67.83,1,1.24l1.44,1.75,1.36,1.62.05.06,1.4,1.65,1.49,1.72q2.85,3.27,5.63,6.28c1,1.06,1.95,2.09,2.92,3.11v-92.8Z" transform="translate(-174.8 -197.96)"/><path class="cls-3" d="M225.54,325a17.66,17.66,0,0,1,3.77-5.82,16.78,16.78,0,0,1,5.8-3.77,20,20,0,0,1,7.39-1.33,17.3,17.3,0,0,1,8.1,1.69,15.42,15.42,0,0,1,5.39,4.67l-2.51,2.14-3,2.52a8.92,8.92,0,0,0-8-4.2,10.89,10.89,0,0,0-4.28.82,9.51,9.51,0,0,0-3.31,2.33,10.77,10.77,0,0,0-2.16,3.62,13.57,13.57,0,0,0-.77,4.67,14.16,14.16,0,0,0,.77,4.77,10.71,10.71,0,0,0,2.16,3.69,9.53,9.53,0,0,0,3.31,2.39,11.83,11.83,0,0,0,9.56-.33,10.68,10.68,0,0,0,3.21-3s0,0,0,0l5.18,4.52a16.13,16.13,0,0,1-2.33,2.68,14,14,0,0,1-3,2.11,15.31,15.31,0,0,1-3.79,1.38,20.77,20.77,0,0,1-4.73.49,20.22,20.22,0,0,1-7.43-1.3,16.12,16.12,0,0,1-9.41-9.57,21.38,21.38,0,0,1-1.31-7.7A19.94,19.94,0,0,1,225.54,325Z" transform="translate(-174.8 -197.96)"/><path class="cls-4" d="M448.15,260.44H446.9l-.94,0c-1.4,0-2.83-.1-4.29-.19l-.78-.05-.45,0-.27,0c-.74-.05-1.5-.12-2.27-.19l-1.09-.1h-.08l-.56-.05-1.62-.21-1.16-.14-.39-.05-.53-.06-.35-.05-1.23-.18-1.46-.22-.5-.08-1.66-.28-.68-.12-.65-.12c-.43-.07-.87-.15-1.3-.25l-1.15-.22-1.92-.41-1-.21-.92-.21-.32-.08-1.11-.26-.59-.15-2-.5-1-.28-1-.27-.54-.15-1.43-.41-2-.62-1.89-.6-.26-.09-.45-.14-.77-.26-1.18-.41c-1.12-.38-2.26-.8-3.4-1.22l-1.61-.61-.44-.17-1.24-.49-1.39-.56-.26-.11-1.05-.44-.9-.38-1.88-.82-1.17-.52-1-.46-.56-.26-2-.95c-.89-.43-1.62-.79-2.52-1.25l-1.25-.63c-.05,0-2.51-1.33-2.57-1.35l-3-1.64V392.7l.08,21.86h0l-.07,49.36v9.44h0v71.16l3.44-3.56.29-.31.83-.87c.69-.75,1.34-1.44,2.12-2.32L386,537l.17-.19.34-.37.78-.86,1-1.14,2.25-2.53.74-.86c.12-.13.24-.26.35-.4.36-.4.67-.78,1-1.19l1.06-1.25.71-.84c.82-1,1.48-1.76,2.3-2.78.13-.14.28-.33.4-.47,1-1.22,2.12-2.63,3.12-3.89.57-.72,1-1.26,1.57-2l1.5-1.93q1.35-1.77,2.7-3.59l1.35-1.83.74-1,.29-.4,1.31-1.82c1-1.43,5.5-5.22,11.92-16,19.22-32.4,28.13-54.09,38-91.88,11.34-43.28,15-90.71,10.84-141a122.67,122.67,0,0,1-20.75,1.77h-1.66Z" transform="translate(-174.8 -197.96)"/><polygon class="cls-5" points="259.13 148.77 259.13 152.01 235.89 152.01 235.89 116.62 258.62 116.62 258.62 119.89 258.62 123.24 243.54 123.24 243.54 130.93 256.67 130.93 256.67 134.32 256.67 137.29 243.54 137.29 243.54 145.25 259.13 145.25 259.13 148.77"/><path class="cls-6" d="M482.36,290.27q-.08-3.36-.2-6.77c-.09-2.27-.2-4.55-.31-6.86s-.27-4.61-.42-6.94q-.48-7-1.16-14.14l-.27-2.69c-.09-.9-.19-1.8-.29-2.7s-.18-1.7-.27-2.55-.22-1.93-.34-2.9l-.23.09-.22.07c-.53.18-1.51.5-2.91.89l-.51.15-.2.05-1,.25-.21.06-.59.14-.78.19-.32.07h0c-.86.2-1.8.41-2.82.61l-.34.06h0l-1,.17-.45.08-1.38.25-.55.09-.78.12c-.85.14-1.73.27-2.65.39l-1.19.15-.73.09h0c-2.53.29-5.29.53-8.26.68l-.67,0h0l-.36,0q-3,.13-6.28.11h-.83l-2.76-.06h-.64l-.4,0-.47,0-.94,0c-.94,0-1.9-.1-2.88-.18l-1.47-.11h-.07l-.93-.08-.49,0-.68-.06-1.63-.17-.19,0-.71-.09-1-.12-1-.11-.3,0h-.13l-.1,0-.42-.05-1.58-.23c-.46-.06-.93-.13-1.39-.21l-1.5-.25c-.48-.07-1-.16-1.46-.25l-2.09-.39-1-.21c-.34-.06-.69-.13-1-.21l-1-.22-1-.23-1.05-.24-1.06-.25-1-.25a1.67,1.67,0,0,1-.3-.08l-1.38-.34-.49-.13-.13,0c-.33-.08-.65-.16-1-.26s-.73-.19-1.09-.3-.73-.2-1.1-.31-.92-.26-1.37-.4-.67-.2-1-.3l-.44-.13-.44-.14-.61-.19q-.84-.25-1.68-.54l-1.11-.37-.75-.25-1.29-.44-1.38-.49h0l-.82-.3-.67-.24-.36-.14-2.07-.79-.64-.25c-1.18-.47-2.36-.95-3.55-1.45l-.57-.24-.38-.17-1-.43-.41-.18-.42-.19c-.61-.26-1.23-.54-1.84-.83l-1-.45-.87-.41-1.86-.89c-1.78-.87-3.58-1.78-5.38-2.74l-1.51-.81c-1.6-.86-3.2-1.76-4.82-2.71-.79-.46-1.59-.93-2.38-1.41s-1.74-1.06-2.62-1.61a205.92,205.92,0,0,1-19.36-13.7q-1.49-1.18-3-2.4-5.77-4.77-11.63-10.24l-.07-.06A215.42,215.42,0,0,1,290,227.15q-5.81,3.4-11.45,6.17l-1.64.79-.78.38-1.21.56h0l-2.39,1.08-.47.21-1.47.64q-2.47,1.06-4.9,2c-2.64,1-5.24,2-7.8,2.84l-1.65.54-1.3.41-.94.29c-1.16.35-2.3.69-3.43,1-.62.17-1.22.34-1.82.49l-1.36.36-.12,0-.93.23-1.19.29-1.77.42-1.34.29c-.58.13-1.15.26-1.73.37l-.78.16-1.66.33-2.05.36-1.87.32-.24,0-1.56.24c-1.34.2-2.66.37-4,.53l-1.58.18-1.6.16-1.55.14c-1.16.1-2.3.18-3.42.25l-1.4.08-1.76.08c-1.16,0-2.31.07-3.43.08h-1.66c-18.9,0-31.22-4-33.3-4.71l0,0-.23-.09v0l0,0h0a470.64,470.64,0,0,0-3.38,55.55q0,4.56.1,9c0,.67,0,1.32,0,2,0,.91.05,1.81.08,2.7v0c0,.9.06,1.8.1,2.69q.39,9.94,1.2,19.48c.08.82.15,1.64.23,2.45l.3,3.13c.08.84.17,1.67.26,2.51l.3,2.71q.41,3.52.86,7l.54,3.92c.24,1.64.49,3.27.74,4.89l.39,2.42c.11.66.22,1.33.33,2,.16.95.32,1.89.49,2.82.12.71.25,1.41.38,2.11s.22,1.25.34,1.86.27,1.43.41,2.14c.52,2.68,1.07,5.32,1.63,7.94.15.7.31,1.39.46,2.08l.57,2.49c.13.6.28,1.2.42,1.8s.24,1,.35,1.48c.19.79.38,1.57.58,2.35s.41,1.64.62,2.46q1.88,7.33,4,14.38c.23.79.47,1.56.71,2.34.16.51.31,1,.48,1.51s.36,1.15.54,1.72q.6,1.86,1.2,3.69.76,2.27,1.54,4.52c.6,1.71,1.2,3.4,1.82,5.07.2.53.39,1.06.58,1.59q1.23,3.3,2.51,6.52c.56,1.43,1.14,2.85,1.72,4.25q3,7.41,6.33,14.39c.62,1.34,1.25,2.66,1.89,4,.31.66.64,1.31,1,2l1,1.94c.64,1.29,1.3,2.57,1.95,3.84.33.63.65,1.27,1,1.89.57,1.09,1.14,2.17,1.72,3.23l.27.51c.67,1.24,1.35,2.47,2,3.68l1,1.81c1,1.81,2.06,3.59,3.1,5.36.7,1.17,1.39,2.33,2.1,3.48s1.4,2.29,2.11,3.42,1.42,2.26,2.14,3.37,1.42,2.21,2.15,3.3l1.08,1.63,1.13,1.68,2,2.89.15.21c.62.88,1.23,1.75,1.83,2.62l.37.5c.73,1,1.46,2,2.2,3.06s1.47,2,2.21,3l1.11,1.48,1.13,1.49c1.1,1.44,2.2,2.86,3.32,4.26.36.47.73.93,1.11,1.39l2.23,2.76c.37.45.73.9,1.12,1.35q2.77,3.38,5.56,6.56,1.67,1.91,3.33,3.75l2.21,2.43q.54.6,1.11,1.2c.38.42.77.83,1.16,1.24h0l1,1.09c3.46,3.67,6.9,7.12,10.26,10.36.52.51,1.05,1,1.57,1.51,3.94,3.75,7.77,7.21,11.45,10.37,22.16,19.11,38.62,27.8,38.62,27.8l.07,0,1-.56.25-.15.85-.48.5-.29.83-.5.61-.36c.53-.32,1.11-.67,1.73-1.06l.77-.47c.19-.13.39-.26.6-.38s.53-.34.8-.51c4.1-2.62,9.58-6.33,16-11.2,3.7-2.81,7.73-6,12-9.6l3-2.55c.47-.4.94-.82,1.42-1.24l1.43-1.25,1.65-1.48,1.78-1.61c1.78-1.64,3.59-3.33,5.43-5.09l2.11-2c.28-.27.56-.54.83-.82s.43-.42.64-.63c.76-.74,1.51-1.5,2.27-2.26l1.1-1.11c.77-.79,1.55-1.58,2.32-2.39q1.73-1.78,3.46-3.65.93-1,1.86-2l.51-.55,1.45-1.61q2-2.18,4-4.46l2-2.34,1-1.13,1-1.18,1-1.19,1-1.21,1-1.21q1.49-1.83,3-3.72l2-2.53,1-1.29c1.65-2.15,3.29-4.36,4.93-6.61.46-.63.91-1.26,1.36-1.9s1.05-1.47,1.57-2.21l1-1.4,1.94-2.82,1.93-2.87,1-1.46q1.44-2.19,2.86-4.44c.22-.35.45-.7.67-1.06l.27-.44c.14-.21.27-.42.4-.63l.55-.89,1.56-2.53c.15-.27.31-.53.47-.8l.78-1.29c.37-.61.73-1.23,1.09-1.85l.73-1.24,0-.05,1.43-2.49c.21-.37.41-.74.63-1.11l.68-1.22.33-.59c.33-.61.67-1.21,1-1.82l.46-.86c.26-.48.53-1,.79-1.45.42-.78.83-1.55,1.23-2.33l.64-1.21c.61-1.17,1.22-2.35,1.82-3.53s1.11-2.2,1.65-3.31c1.36-2.78,2.71-5.59,4-8.46.13-.29.26-.59.4-.88l.39-.87c1.15-2.56,2.29-5.16,3.4-7.79l.09-.22c.36-.87.71-1.73,1.07-2.59.29-.7.57-1.41.86-2.12l.51-1.28.54-1.36c.5-1.28,1-2.57,1.49-3.86.26-.71.53-1.41.79-2.12s.54-1.46.8-2.19.54-1.48.8-2.22l.51-1.47.27-.76.06-.18c.05-.12.08-.24.12-.36.2-.57.4-1.13.59-1.71l.12-.37c.15-.43.3-.87.44-1.31s.25-.74.38-1.12c.23-.72.47-1.44.7-2.16l.42-1.32c.16-.5.32-1,.47-1.5s.28-.87.41-1.3a.64.64,0,0,1,0-.07q.94-3.09,1.85-6.22c.18-.59.34-1.19.52-1.79.33-1.18.66-2.37,1-3.56l.28-1.06c.2-.74.4-1.47.59-2.21l.12-.47c.07-.29.14-.58.22-.86.13-.51.25-1,.38-1.51l.15-.6c.25-1,.49-2,.74-3,.1-.47.21-.94.32-1.4l.33-1.4c.18-.75.35-1.5.52-2.25l.39-1.74c.16-.76.33-1.51.49-2.26s.32-1.52.47-2.28l.47-2.28.45-2.3c.56-2.89,1.08-5.8,1.58-8.75.17-1,.33-2,.49-3,.12-.7.23-1.39.33-2.1.08-.51.15-1,.23-1.51l.18-1.16c0-.33.09-.66.14-1s.13-.93.2-1.4v0c.11-.8.22-1.61.34-2.42.06-.43.11-.87.17-1.3.1-.78.2-1.57.29-2.35.06-.42.11-.83.16-1.24l.12-1.06c0-.17.05-.35.07-.54l0-.24c0-.16,0-.32.05-.48l.3-2.63c.05-.45.09-.9.14-1.35l.06-.55c.05-.49.09-1,.14-1.45.08-.77.15-1.54.22-2.31l.06-.51c0-.06,0-.12,0-.19s0-.32,0-.48q.38-4.12.67-8.34c.06-.75.1-1.51.15-2.26,0-.58.07-1.16.11-1.74l0-.32c.07-1.15.13-2.3.19-3.46,0-.82.08-1.65.11-2.47a.28.28,0,0,0,0-.09c0-.8.07-1.6.1-2.41,0-1,.08-2,.11-3.05,0-.61,0-1.22.05-1.83,0-.24,0-.49,0-.72,0-.58,0-1.16,0-1.73v-.42c0-.86,0-1.72.05-2.59q0-3,0-6.07C482.47,297,482.44,293.63,482.36,290.27ZM456.18,401.62a319.07,319.07,0,0,1-50.57,103.54q-1.65,2.23-3.3,4.38L401,511.18l-.31.4-.94,1.2-1.46,1.83q-1.45,1.82-2.92,3.58c-.48.59-1,1.17-1.45,1.75l-1.85,2.19c-1.08,1.26-2.15,2.49-3.22,3.71-.13.15-.25.3-.39.44-.89,1-1.78,2-2.67,3l-.56.61-1.17,1.28c-.38.41-.75.82-1.13,1.22l-.39.41c-.25.28-.52.56-.78.83-.81.87-1.62,1.71-2.43,2.55l-1.05,1.09c-.35.37-.71.72-1.06,1.08-1.05,1.08-2.1,2.12-3.13,3.15l-.94.92-.08.08c-1.85,1.81-3.67,3.56-5.45,5.21-3.49,3.27-6.84,6.23-10,8.92-.59.51-1.18,1-1.76,1.49l-1.44,1.21-.43.35-.62.51-.89.73h0c-2.7,2.2-5.28,4.21-7.7,6l-.25.19-.67.51-1.26.93-2,1.49-.64.47-2.48,1.75-1.29.9c-.84.59-1.65,1.13-2.42,1.66l-1.09.72c-1.48,1-2.82,1.84-4,2.59l0,0,0,0v0l-.17-.11a269.93,269.93,0,0,1-38.45-30c-.64-.59-1.28-1.2-1.93-1.81-1.07-1-2.15-2-3.24-3.11q-3.1-3-6.28-6.28l-1.66-1.72-1.56-1.65-.06-.06c-.5-.54-1-1.07-1.51-1.62l-1.61-1.75L271,528.81c-1.23-1.37-2.48-2.77-3.72-4.19-.55-.62-1.09-1.25-1.62-1.88s-1.18-1.37-1.76-2.06l-1-1.19-1.15-1.39-1.84-2.25c-.52-.64-1-1.27-1.54-1.92q-1.69-2.11-3.38-4.31t-3.36-4.46A319.25,319.25,0,0,1,201.1,401.62c-12.23-43.27-16.15-90.64-11.71-141v-.05a136.53,136.53,0,0,0,22.27,1.77h2.56c.94,0,1.89,0,2.87-.08l1.38-.05,1.75-.09L222,262l1.12-.08h.17l.38,0,1.27-.1.38,0,1.36-.14c.53-.05,1.06-.1,1.6-.17s1.34-.14,2-.23l1.93-.25h.11c.45-.06.89-.12,1.34-.2l1.72-.25,2.24-.37,2-.36,2-.4.88-.17.87-.18q4.41-.93,9-2.17l1.8-.49.08,0,1.61-.47.46-.13.16,0,1.48-.45,1.89-.59c1.26-.41,2.53-.84,3.82-1.28l1.93-.68,1.4-.51.05,0c1.82-.67,3.66-1.39,5.5-2.15,0,0,.06,0,.08,0l1.25-.51,1.33-.56,1.44-.63h0l1.79-.8c2.07-.93,4.17-1.93,6.28-3,1.08-.53,2.16-1.09,3.24-1.65.65-.33,1.29-.67,1.93-1a217.26,217.26,0,0,0,38.43-26.51l.19-.16.07.06q5,4.24,9.89,8c1,.8,2.07,1.57,3.09,2.33l1.62,1.19,1.62,1.17,3.22,2.25,1.5,1q2.48,1.66,4.93,3.22c1.05.67,2.09,1.32,3.14,2,1.69,1,3.36,2,5,3q2.2,1.26,4.38,2.43l.54.28,1.48.78c.87.46,1.74.91,2.61,1.34l1.44.71,2.16,1,1.13.53c1,.46,1.93.89,2.89,1.33l2.16.94.47.2,1.08.46,1.34.56,2.07.83.89.35,1.18.46.26.09c.51.2,1,.38,1.51.56s.92.35,1.39.51l.45.16,1.79.63c1.23.43,2.45.83,3.66,1.21l1.32.42.78.24.52.16.26.07,2,.58,2.21.62,1.63.43.55.14.57.14,1.59.4,2.15.5.61.14,1.21.27.3.06,1,.22,1,.21,2.08.4,1.25.23q.71.14,1.41.24l.7.12.71.11,1.83.29.49.07,1.66.23,1.23.16.38,0,.66.08.31,0,1.39.15,1.68.18.61.05h.08l1.17.11,2.46.18.28,0,.49,0,.84.05c1.58.09,3.12.16,4.63.19l1,0,.73,0h2a138.22,138.22,0,0,0,22-1.72l.37-.05C472.33,310.94,468.41,358.33,456.18,401.62Z" transform="translate(-174.8 -197.96)"/><polygon class="cls-6" points="219.31 295.52 194.32 218.5 259.8 170.92 194.24 170.92 178.87 170.92 178.87 170.92 160.09 113.19 153.83 93.94 153.83 93.94 128.8 170.92 128.8 170.92 113.28 170.92 47.87 170.92 60.97 180.44 113.28 218.46 113.35 218.51 113.28 218.72 90.2 289.73 88.31 295.52 113.28 277.39 153.83 247.94 166.93 257.45 194.24 277.3 219.31 295.52 219.31 295.52"/><rect class="cls-7" x="152.91" y="73.07" width="12.93"/><polygon class="cls-6" points="152.91 73.07 152.91 73.07 165.84 73.07 165.84 69.72 165.84 69.69 165.84 69.56 165.84 66.3 152.91 66.3 152.91 56.66 167.23 56.66 167.23 53.3 167.23 49.94 167.23 49.94 145.27 49.94 145.27 69.31 145.27 85.34 152.91 85.34 152.91 73.07"/><path class="cls-6" d="M228.69,346a16.35,16.35,0,0,0,5.72,3.73,20.22,20.22,0,0,0,7.43,1.3,20.77,20.77,0,0,0,4.73-.49,15.31,15.31,0,0,0,3.79-1.38,14,14,0,0,0,3-2.11,15.68,15.68,0,0,0,2.33-2.68l-5.18-4.52s0,0,0,0a10.68,10.68,0,0,1-3.21,3,10.3,10.3,0,0,1-5.33,1.18,10.44,10.44,0,0,1-4.23-.85,9.53,9.53,0,0,1-3.31-2.39,10.71,10.71,0,0,1-2.16-3.69,14.16,14.16,0,0,1-.76-4.77,13.58,13.58,0,0,1,.76-4.67,10.77,10.77,0,0,1,2.16-3.62,9.51,9.51,0,0,1,3.31-2.33,10.92,10.92,0,0,1,4.28-.82,8.92,8.92,0,0,1,8,4.2l3-2.52,2.51-2.14a15.33,15.33,0,0,0-5.39-4.67,17.3,17.3,0,0,0-8.1-1.69,20,20,0,0,0-7.39,1.33,16.78,16.78,0,0,0-5.8,3.77A17.66,17.66,0,0,0,225,325a19.94,19.94,0,0,0-1.35,7.44,21.38,21.38,0,0,0,1.31,7.7A16.45,16.45,0,0,0,228.69,346Z" transform="translate(-174.8 -197.96)"/><polygon class="cls-6" points="243.04 137.29 256.17 137.29 256.17 134.32 256.17 130.93 243.04 130.93 243.04 123.24 258.13 123.24 258.13 119.89 258.13 116.62 235.39 116.62 235.39 152.01 258.63 152.01 258.63 148.77 258.63 145.25 243.04 145.25 243.04 137.29"/><path class="cls-6" d="M319.59,525.14l2.56-6.92h12.52l2.56,6.92h8.31l-14.21-35.4h-8.11l1.34,3.13-13,32.27Zm12.82-13h-8l4-10.77h.05Z" transform="translate(-174.8 -197.96)"/></svg>